<svg xmlns="http://www.w3.org/2000/svg" viewBox="0 0 127.67 127.68"><defs><style>.cls-1{fill:#8cc63f;}.cls-2{fill:#231f20;}</style></defs><g id="Layer_2" data-name="Layer 2"><g id="OBJECT"><path class="cls-1" d="M127.67,63.84a63.65,63.65,0,0,1-19.25,45.69,6,6,0,0,1-.51.5,63.68,63.68,0,0,1-16.1,11.21c-.44.22-.88.43-1.33.62a60.51,60.51,0,0,1-7.85,3c-.92.28-1.83.54-2.76.77a64,64,0,0,1-32.07,0c-.93-.24-1.85-.5-2.76-.77a63.92,63.92,0,0,1-7.85-3c-.45-.19-.89-.41-1.34-.62h0A64.13,64.13,0,0,1,19.76,110c-.17-.16-.35-.32-.51-.5h0A63.84,63.84,0,1,1,127.67,63.84Z"/><path class="cls-2" d="M103.07,97.51c-1.86-7-7.43-13.21-5.16-16.72s5.16-10.53,3.09-18.16-7.84-9.91-8-18.17-2.06-16.1-19.81-21.88a25.41,25.41,0,0,0-9.31-1.35,25.39,25.39,0,0,0-9.3,1.35C36.78,28.36,34.92,36.21,34.72,44.46s-6,10.53-8,18.17.82,14.65,3.09,18.16-3.3,9.7-5.16,16.72a17.25,17.25,0,0,0-.42,6.8c1.06-.4,2.23-.79,3.57-1.24s2.71-.9,4.29-1.46c6.28-2.25,13.25-7.06,14.62-8,1.43-3,2.33-8.77,2.8-12.8,2.81,3.13,5.93,5.7,6.65,6.82,1.32,2.07,5.41,1.65,5.41,1.65h4.63s4.09.42,5.41-1.65c.72-1.12,3.84-3.69,6.65-6.82.47,4,1.37,9.82,2.8,12.8,1.37,1,8.33,5.78,14.62,8,1.58.56,3,1,4.29,1.46s2.51.84,3.57,1.24A17.25,17.25,0,0,0,103.07,97.51Z"/><path class="cls-2" d="M108.42,109.53a6,6,0,0,1-.51.5,63.68,63.68,0,0,1-16.1,11.21c.83-6.65,1.42-13.57,1.81-18.54.54.23,1.06.44,1.59.62,7.22,2.58,11,3.21,13.2,6.2A0,0,0,0,0,108.42,109.53Z"/><path class="cls-2" d="M43.89,97.47c5.81,11.69,17.77,20.41,19.94,21.92,2.18-1.51,14.14-10.23,20-21.92C81.52,96,80,95,80,95c-1.35-2.58-2.25-7.39-2.8-11.4-.89.92-1.77,1.77-2.56,2.53a21.3,21.3,0,0,0-2.42,2.51c-1.16,1.8-3.8,2.06-5.27,2.06-.44,0-.76,0-.87,0H61.55c-.11,0-.43,0-.87,0-1.47,0-4.11-.26-5.27-2.06A21.3,21.3,0,0,0,53,86.09c-.79-.76-1.67-1.61-2.56-2.53-.55,4-1.45,8.82-2.8,11.4C47.63,95,46.15,96,43.89,97.47Z"/><path class="cls-2" d="M92.42,102.19c-.39,5.16-1,12.64-1.94,19.67a60.51,60.51,0,0,1-7.85,3c-.92.28-1.83.54-2.76.77a64,64,0,0,1-32.07,0c-.93-.24-1.85-.5-2.76-.77a63.92,63.92,0,0,1-7.85-3c-.91-7-1.55-14.51-1.94-19.67a66.76,66.76,0,0,0,7.55-4c6.41,12.92,20,22,20.69,22.51l.35.23.34-.23c.74-.49,14.28-9.59,20.69-22.51A67.63,67.63,0,0,0,92.42,102.19Z"/><path class="cls-2" d="M35.85,121.23A64.13,64.13,0,0,1,19.76,110c-.17-.16-.35-.32-.51-.5h0c2.17-3,6-3.62,13.21-6.2.52-.18,1.06-.39,1.59-.62C34.43,107.67,35,114.58,35.85,121.23Z"/></g></g></svg>