<svg xmlns="http://www.w3.org/2000/svg" viewBox="0 0 127.68 127.68"><defs><style>.cls-1{fill:#29abe2;}.cls-2{fill:#231f20;}</style></defs><g id="Layer_2" data-name="Layer 2"><g id="OBJECT"><path class="cls-1" d="M127.68,63.84a63.65,63.65,0,0,1-19.25,45.69,6,6,0,0,1-.51.5,63.86,63.86,0,0,1-13.73,10q-1.16.65-2.34,1.2A64.56,64.56,0,0,1,82.24,125l-1.31.37-.85.23h0c-1.22.33-2.48.62-3.74.86-.94.2-1.88.36-2.84.51s-1.86.25-2.82.35a63.32,63.32,0,0,1-13.67,0c-.94-.1-1.88-.22-2.81-.35s-1.89-.31-2.84-.51h0c-1.26-.24-2.5-.53-3.73-.85l-.85-.23L45.45,125a64.44,64.44,0,0,1-9.62-3.77c-.79-.38-1.56-.78-2.33-1.21h0a63.33,63.33,0,0,1-13.73-10c-.17-.16-.35-.32-.51-.5A63.84,63.84,0,1,1,127.68,63.84Z"/><path class="cls-2" d="M88.8,40.11A19.43,19.43,0,0,0,75.34,25.4c0-.19,0-.37,0-.56a11.53,11.53,0,1,0-23.06,0c0,.19,0,.37,0,.56A19.4,19.4,0,0,0,38.89,40.11c-.72,4.11-.19,10.33.54,15.38-1.18,1.56-1.12,3.85.14,6.21,1.59,3,.13,7,4.84,7.58.07,1.12.14,2.11.23,2.91.66,6.33,10.15,13.35,11.48,15.41s5.41,1.65,5.41,1.65h4.63s4.09.42,5.41-1.65,10.82-9.08,11.48-15.41c.08-.8.16-1.79.23-2.91,4.71-.56,3.25-4.6,4.84-7.58,1.26-2.36,1.31-4.65.14-6.21C89,50.44,89.52,44.22,88.8,40.11Z"/><path class="cls-2" d="M63.84,111.14a73,73,0,0,0,16.39-16L80.05,95c-1.35-2.58-2.25-7.39-2.8-11.4-.89.92-1.78,1.77-2.56,2.53a21.3,21.3,0,0,0-2.42,2.51c-1.16,1.8-3.8,2.06-5.27,2.06-.44,0-.76,0-.88,0H61.56c-.11,0-.44,0-.87,0-1.48,0-4.12-.26-5.27-2.06A22.2,22.2,0,0,0,53,86.09c-.79-.76-1.67-1.61-2.57-2.53-.54,4-1.44,8.82-2.79,11.4l-.18.14A73.27,73.27,0,0,0,63.84,111.14Z"/><path class="cls-2" d="M108.43,109.53a6,6,0,0,1-.51.5,63.86,63.86,0,0,1-13.73,10l2.39-3.47-7.9-7.61,6.17-5.75.37.13c7.22,2.58,11,3.21,13.2,6.2A0,0,0,0,0,108.43,109.53Z"/><path class="cls-2" d="M45.45,125a64.44,64.44,0,0,1-9.62-3.77l-3.1-4.5,8.08-7.79-6.7-6.25a64,64,0,0,0,8.69-4.53C43.14,103.12,44,115,45.45,125Z"/><path class="cls-2" d="M95,116.72l-3.11,4.5A64.56,64.56,0,0,1,82.24,125c1.42-10,2.3-21.87,2.64-26.84a65.22,65.22,0,0,0,8.69,4.53l-6.68,6.25Z"/><path class="cls-2" d="M31.11,116.55,33.49,120a63.33,63.33,0,0,1-13.73-10c-.17-.16-.35-.32-.51-.5a0,0,0,0,0,0,0c2.16-3,6-3.62,13.21-6.2l.37-.13L39,108.94Z"/><path class="cls-2" d="M83.69,97.41c-.31,4.56-1.22,17.36-2.76,28l-.85.23h0c-1.22.33-2.48.62-3.74.86-.94.2-1.88.36-2.84.51s-1.86.25-2.82.35a63.32,63.32,0,0,1-13.67,0c-.94-.1-1.88-.22-2.81-.35s-1.89-.31-2.84-.51h0c-1.26-.24-2.5-.53-3.73-.85l-.85-.23c-1.54-10.59-2.46-23.4-2.76-28,1-.61,1.78-1.15,2.39-1.57A72.32,72.32,0,0,0,63.5,112.4l.35.24.34-.24A72.52,72.52,0,0,0,81.3,95.84C81.91,96.26,82.73,96.8,83.69,97.41Z"/></g></g></svg>