<svg xmlns="http://www.w3.org/2000/svg" viewBox="0 0 127.68 127.67"><defs><style>.cls-1{fill:#39b54a;}.cls-2{fill:#231f20;}</style></defs><g id="Layer_2" data-name="Layer 2"><g id="OBJECT"><path class="cls-1" d="M127.68,63.84a63.67,63.67,0,0,1-19.26,45.67h0c-.16.16-.32.33-.5.49h0a63.52,63.52,0,0,1-33.13,16.71c-1.13.21-2.28.38-3.43.5a62.19,62.19,0,0,1-7.51.45A63.62,63.62,0,0,1,19.77,110h0l-.5-.49h0A63.83,63.83,0,1,1,127.68,63.84Z"/><path class="cls-2" d="M87,54.41A91.49,91.49,0,0,1,90.56,43.6a30,30,0,0,0-2.48-8c-2.2-5.1-8.39-9.77-8.39-9.77l5.64-2.76c-4.82-.68-14.59.86-14.59.86L76,20.13s-15.58.11-25.76,4.75c-8.12,3.7-14.31,15.55-13.07,18.3.83,1.87,2,8.09,2.65,11.91-1.57,1.53-1.64,4-.26,6.64,1.6,3,.14,7,4.84,7.57.07,1.13.15,2.12.23,2.92.67,6.33,10.16,13.35,11.48,15.41s5.41,1.65,5.41,1.65h4.64s4.08.41,5.41-1.65,10.82-9.08,11.48-15.41c.08-.8.16-1.79.23-2.92,4.7-.56,3.24-4.59,4.84-7.57S89.37,55.8,87,54.41Z"/><path class="cls-2" d="M63.84,104.45a22.93,22.93,0,0,0,17.54-8.56L80,95c-1.34-2.59-2.24-7.4-2.79-11.41-.9.92-1.78,1.77-2.57,2.53a23.17,23.17,0,0,0-2.42,2.51c-1.15,1.8-3.79,2.07-5.26,2.07-.44,0-.76,0-.88,0H61.56c-.12,0-.44,0-.88,0-1.47,0-4.11-.27-5.26-2.07A23.17,23.17,0,0,0,53,86.08c-.79-.76-1.67-1.61-2.57-2.53-.55,4-1.45,8.82-2.79,11.41l-1.34.93A22.94,22.94,0,0,0,63.84,104.45Z"/><path class="cls-2" d="M108.42,109.51h0c-.16.16-.32.33-.5.49h0a63.52,63.52,0,0,1-33.13,16.71c-1.13.21-2.28.38-3.43.5a62.19,62.19,0,0,1-7.51.45A63.62,63.62,0,0,1,19.77,110h0l-.5-.49h0c2.16-3,6-3.62,13.2-6.19a65.39,65.39,0,0,0,12.8-6.74,24.23,24.23,0,0,0,18.58,9.11,24.18,24.18,0,0,0,18.57-9.11,66.27,66.27,0,0,0,12.8,6.74C102.44,105.89,106.26,106.52,108.42,109.51Z"/></g></g></svg>