<svg xmlns="http://www.w3.org/2000/svg" viewBox="0 0 127.67 127.67"><defs><style>.cls-1{fill:#82dcf4;}.cls-2{fill:#231f20;}</style></defs><g id="Layer_2" data-name="Layer 2"><g id="OBJECT"><path class="cls-1" d="M127.67,63.84a63.67,63.67,0,0,1-19.25,45.69,6,6,0,0,1-.51.5c-.06.06-.12.13-.19.19a63.83,63.83,0,0,1-25.86,14.87l-.21.06-.22.06c-.23.08-.46.14-.69.2l-.72.19c-.31.09-.62.17-.94.24a64.46,64.46,0,0,1-30.5,0c-.31-.07-.63-.15-.94-.24l-.72-.19c-.22-.06-.45-.12-.67-.2l-.24-.07-.19,0A63.68,63.68,0,0,1,20,110.21a1.71,1.71,0,0,1-.2-.18c-.17-.16-.35-.33-.52-.51A63.84,63.84,0,1,1,127.67,63.84Z"/><path class="cls-2" d="M86.77,54.19c-1.21-.63-2.15.11-2.8,1.07.33-5.51.64-13,.12-16.24-.87-5.47-5.72-13.31-17.34-13.31H60.92C49.3,25.71,44.45,33.55,43.58,39c-.52,3.26-.21,10.73.12,16.24-.65-1-1.59-1.7-2.8-1.07-2.58,1.34-3,4.34-1.34,7.43s.13,7,4.84,7.58c.07,1.12.14,2.12.23,2.92.66,6.33,10.15,13.34,11.48,15.41s5.41,1.65,5.41,1.65h4.63s4.09.41,5.41-1.65S82.38,78.45,83,72.12c.09-.8.16-1.8.23-2.92,4.71-.56,3.25-4.59,4.84-7.58S89.35,55.53,86.77,54.19Z"/><path class="cls-2" d="M46.29,95.89a23,23,0,0,0,17.54,8.56,23,23,0,0,0,17.55-8.56C80.53,95.32,80,95,80,95c-1.35-2.59-2.25-7.4-2.8-11.41-.89.92-1.77,1.77-2.56,2.53a21.3,21.3,0,0,0-2.42,2.51c-1.16,1.8-3.8,2.07-5.27,2.07-.44,0-.76,0-.87,0H61.55c-.11,0-.43,0-.87,0-1.47,0-4.11-.27-5.27-2.07A21.3,21.3,0,0,0,53,86.08c-.79-.76-1.67-1.61-2.56-2.53-.55,4-1.45,8.82-2.8,11.41C47.63,95,47.14,95.32,46.29,95.89Z"/><path class="cls-2" d="M108.42,109.53a6,6,0,0,1-.51.5c-.06.06-.12.13-.19.19a63.83,63.83,0,0,1-25.86,14.87l-.21.06-.22.06a206.41,206.41,0,0,0,5.25-26,54.53,54.53,0,0,0,8.53,4.1c7.22,2.58,11,3.2,13.2,6.19C108.41,109.52,108.42,109.52,108.42,109.53Z"/><path class="cls-2" d="M46.25,125.21l-.24-.07-.19,0A63.68,63.68,0,0,1,20,110.21a1.71,1.71,0,0,1-.2-.18c-.17-.16-.35-.33-.52-.51h0c2.17-3,6-3.61,13.21-6.19A54.1,54.1,0,0,0,41,99.22,203.12,203.12,0,0,0,46.25,125.21Z"/><path class="cls-2" d="M85.53,98.53A202.08,202.08,0,0,1,80,125.6c-.31.09-.62.17-.94.24a64.46,64.46,0,0,1-30.5,0c-.31-.07-.63-.15-.94-.24a201.63,201.63,0,0,1-5.49-27.07c1.19-.7,2.24-1.38,3.11-2a24.22,24.22,0,0,0,18.58,9.11,24.18,24.18,0,0,0,18.57-9.11C83.27,97.15,84.34,97.83,85.53,98.53Z"/></g></g></svg>