<svg xmlns="http://www.w3.org/2000/svg" viewBox="0 0 127.68 127.68"><defs><style>.cls-1{fill:#ea73b1;}.cls-2{fill:#231f20;}</style></defs><g id="Layer_2" data-name="Layer 2"><g id="OBJECT"><path class="cls-1" d="M127.68,63.84a63.62,63.62,0,0,1-19.26,45.68h0c-.16.17-.32.33-.5.49a63.71,63.71,0,0,1-33.14,16.72l-.71.11c-.6.11-1.2.2-1.81.27-.29,0-.6.09-.91.12A63.93,63.93,0,0,1,19.76,110c-.17-.16-.35-.32-.51-.5A63.84,63.84,0,1,1,127.68,63.84Z"/><path class="cls-2" d="M69.26,21.73A16.72,16.72,0,0,0,65,21.2h-2.4a16.58,16.58,0,0,0-4.21.53C50,24,23,35,37.12,89.25c0,0,2.3-1.73,11.48-2.56.37-2,.66-4.15.87-5.91,2.81,3.13,5.93,5.7,6.64,6.82,1.33,2.07,5.41,1.65,5.41,1.65h4.64s4.08.42,5.41-1.65c.72-1.12,3.83-3.69,6.65-6.82.2,1.76.49,3.86.87,5.91,9.17.83,11.47,2.56,11.47,2.56C104.7,35,77.72,24,69.26,21.73Z"/><path class="cls-2" d="M108.42,109.52h0c-.16.17-.32.33-.5.49a63.71,63.71,0,0,1-33.14,16.72l-.71.11a82.19,82.19,0,0,1-10.81-8.64A61.9,61.9,0,0,0,82.89,96.9a64.47,64.47,0,0,0,12.32,6.42C102.44,105.9,106.26,106.53,108.42,109.52Z"/><path class="cls-2" d="M62.34,117.34A60.66,60.66,0,0,0,81.86,96.22C80.73,95.46,80,95,80,95c-1.34-2.58-2.24-7.39-2.79-11.4-.9.92-1.78,1.77-2.57,2.53a23.17,23.17,0,0,0-2.42,2.51c-1.15,1.8-3.79,2.06-5.26,2.06-.44,0-.76,0-.88,0H61.56c-.11,0-.44,0-.88,0-1.47,0-4.11-.26-5.26-2.06A23.17,23.17,0,0,0,53,86.09c-.79-.76-1.67-1.61-2.57-2.53-.55,4-1.44,8.82-2.79,11.4,0,0-.62.45-1.65,1.14A93.18,93.18,0,0,0,62.34,117.34Z"/><path class="cls-2" d="M72.26,127.12l-8.41.56A63.68,63.68,0,0,1,19.76,110c-.17-.16-.35-.32-.51-.5a0,0,0,0,0,0,0c2.16-3,6-3.62,13.21-6.2A64.92,64.92,0,0,0,45,96.79,93.3,93.3,0,0,0,72.26,127.12Z"/></g></g></svg>