<svg xmlns="http://www.w3.org/2000/svg" viewBox="0 0 127.67 127.67"><defs><style>.cls-1{fill:#82dcf4;}.cls-2{fill:#231f20;}</style></defs><g id="Layer_2" data-name="Layer 2"><g id="OBJECT"><path class="cls-1" d="M127.67,63.84a63.62,63.62,0,0,1-19.25,45.67c-.16.17-.33.34-.51.5a63.89,63.89,0,0,1-11,8.45,62.29,62.29,0,0,1-12.74,5.9l-.53.18-1.75.54c-.38.11-.76.23-1.14.33q-2.93.78-5.94,1.31c-.48.09-1,.17-1.46.24l-.56.08q-.69.1-1.38.18h0l-.77.08a60.23,60.23,0,0,1-6.74.37,64.11,64.11,0,0,1-6.68-.34H57.1l-.79-.1c-.47,0-.93-.11-1.39-.18l-.55-.07A63.72,63.72,0,0,1,47,125.41c-.39-.1-.77-.22-1.16-.33-.59-.16-1.17-.34-1.75-.54h0c-.17,0-.34-.11-.52-.17A63.71,63.71,0,0,1,19.77,110h0l-.5-.49h0A63.83,63.83,0,1,1,127.67,63.84Z"/><path class="cls-2" d="M86.77,54.3a1.69,1.69,0,0,0-.45-.18c.73-8.8,1.69-19,1.69-19a21,21,0,0,0-6.61-8.87l-3.5,1.15L76,23.18s-4.75-3.27-17.75-3S37.65,31.82,38.47,36.72C39,39.56,40,47.88,40.77,54.38c-2.46,1.37-2.83,4.31-1.21,7.35s.13,7,4.84,7.57c.07,1.13.15,2.12.23,2.92.66,6.33,10.16,13.35,11.48,15.41s5.41,1.65,5.41,1.65h4.64s4.08.41,5.41-1.65,10.81-9.08,11.48-15.41c.08-.8.16-1.79.23-2.92,4.7-.56,3.24-4.59,4.84-7.57S89.35,55.64,86.77,54.3Z"/><path class="cls-2" d="M74.68,86.08a23.17,23.17,0,0,0-2.42,2.51c-1.15,1.8-3.79,2.07-5.26,2.07-.44,0-.76,0-.88,0H61.56c-.12,0-.44,0-.88,0-1.47,0-4.11-.27-5.26-2.07A23.17,23.17,0,0,0,53,86.08c-.79-.76-1.67-1.61-2.57-2.53a50.75,50.75,0,0,1-2.24,10.16l15.65,6.52,15.65-6.52a50.06,50.06,0,0,1-2.24-10.16C76.35,84.47,75.47,85.32,74.68,86.08Z"/><path class="cls-2" d="M62.88,101.17,47.69,94.84l0,.12s-.43.31-1.15.8l10.74,12Z"/><path class="cls-2" d="M108.42,109.51c-.16.17-.33.34-.51.5a63.89,63.89,0,0,1-11,8.45,62.29,62.29,0,0,1-12.74,5.9l-.53.18,5.61-9.61-5.93-7.67,7.61-5.79a43.33,43.33,0,0,0,4.31,1.85C102.44,105.89,106.25,106.52,108.42,109.51Z"/><path class="cls-2" d="M81.18,95.76,80,95,80,94.84,64.8,101.17l5.65,6.61Z"/><path class="cls-2" d="M54.92,127.05l-.55-.07A63.72,63.72,0,0,1,47,125.41c-.39-.1-.77-.22-1.16-.33L40,115l6.19-8L38,100.85c2.15-1.11,4.16-2.31,5.78-3.32Z"/><path class="cls-2" d="M38.46,114.93l5.6,9.61c-.17,0-.34-.11-.52-.17A63.71,63.71,0,0,1,19.77,110h0l-.5-.49h0c2.16-3,6-3.62,13.2-6.19a43.64,43.64,0,0,0,4.33-1.85l7.6,5.79Z"/><path class="cls-2" d="M81.55,107l6.18,8-5.87,10c-.38.11-.76.23-1.14.33q-2.93.78-5.94,1.31c-.48.09-1,.17-1.46.24l-.56.08L83.89,97.53c1.62,1,3.62,2.21,5.77,3.32Z"/><path class="cls-2" d="M82.82,96.84,71.38,127.22h0l-.77.08a60.23,60.23,0,0,1-6.74.37,64.11,64.11,0,0,1-6.68-.34H57.1l-.79-.1L44.86,96.84l.6-.39,11.79,13.2L63.84,102l6.59,7.69,11.8-13.2C82.41,96.58,82.6,96.71,82.82,96.84Z"/></g></g></svg>