<svg xmlns="http://www.w3.org/2000/svg" viewBox="0 0 127.68 127.67"><defs><style>.cls-1{fill:#ed1e79;}.cls-2{fill:#231f20;}</style></defs><g id="Layer_2" data-name="Layer 2"><g id="OBJECT"><path class="cls-1" d="M127.68,63.84a63.63,63.63,0,0,1-19.25,45.68,6,6,0,0,1-.51.5c-.07.06-.13.14-.2.19a63.88,63.88,0,0,1-87.76,0l-.2-.19c-.17-.16-.35-.32-.51-.5A63.84,63.84,0,1,1,127.68,63.84Z"/><path class="cls-2" d="M97.86,90.4a14.75,14.75,0,0,0,5.81,4.85c-4.73-6.29-5.46-15.2-5.58-23.08a13.16,13.16,0,0,0,3.61,4.47c-2.34-5.23-5.76-12.85-5.27-18.83,1.13,1.62,3.1,2.24,4.78,2.87-2.84-5-3.85-11.67-5.12-17.32C93.67,32.67,89,24.24,79.42,19.22a16.41,16.41,0,0,0-15.57-.08,16.38,16.38,0,0,0-15.57.08c-9.53,5-14.26,13.44-16.67,24.13C30.33,49,29.32,55.72,26.48,60.67c1.68-.63,3.65-1.25,4.78-2.87.48,6-2.93,13.6-5.27,18.83a13.14,13.14,0,0,0,3.6-4.47C29.48,80,28.74,89,24,95.24a14.75,14.75,0,0,0,5.81-4.85c.39,3.87-2.06,6.49-2.38,9.91,1.13-.36,2.37-.76,3.73-1.22,6.68-2.29,14.09-7.23,15.28-8,1.28-2.47,2.14-6.94,2.69-10.71,2.89,3.3,6.23,6,7,7.2,1.32,2.06,5.41,1.65,5.41,1.65h4.63s4.09.41,5.41-1.65c.75-1.17,4.08-3.9,7-7.2.55,3.77,1.42,8.24,2.69,10.72,1.19.8,8.59,5.75,15.28,8,1.36.47,2.6.87,3.73,1.23C99.92,96.89,97.47,94.27,97.86,90.4Z"/><path class="cls-2" d="M63.84,122.66c2.28-1.59,15.3-11,22.17-23.84-3.47-2-6-3.86-6-3.86-1.35-2.59-2.25-7.4-2.8-11.41-.9.93-1.79,1.79-2.56,2.53a21.3,21.3,0,0,0-2.42,2.51c-1.16,1.8-3.8,2.07-5.27,2.07-.44,0-.76,0-.88,0H61.56c-.11,0-.44,0-.87,0-1.48,0-4.12-.27-5.27-2.07A22.2,22.2,0,0,0,53,86.08c-.77-.74-1.66-1.6-2.56-2.53-.55,4-1.45,8.82-2.8,11.41,0,0-2.5,1.81-6,3.87C48.55,111.64,61.57,121.07,63.84,122.66Z"/><path class="cls-2" d="M108.43,109.52a6,6,0,0,1-.51.5c-.07.06-.13.14-.2.19a63.88,63.88,0,0,1-87.76,0l-.2-.19c-.17-.16-.35-.32-.51-.5,0,0,0,0,0,0,2.16-3,6-3.61,13.21-6.19a53.34,53.34,0,0,0,8.14-3.87c7.69,14.26,22.69,24.34,22.89,24.47l.35.23.34-.23c.2-.13,15.21-10.21,22.88-24.47a53,53,0,0,0,8.15,3.87c7.22,2.58,11,3.2,13.2,6.19Z"/></g></g></svg>