<svg xmlns="http://www.w3.org/2000/svg" viewBox="0 0 127.68 127.67"><defs><style>.cls-1{fill:#fbb03b;}.cls-2{fill:#231f20;}</style></defs><g id="Layer_2" data-name="Layer 2"><g id="OBJECT"><path class="cls-1" d="M127.68,63.84a63.67,63.67,0,0,1-19.25,45.69,6,6,0,0,1-.51.5l-.19.19a63.66,63.66,0,0,1-42.66,17.44H62.63A63.65,63.65,0,0,1,20,110.22l-.2-.19c-.17-.16-.35-.32-.51-.5A63.84,63.84,0,1,1,127.68,63.84Z"/><path class="cls-2" d="M94.8,32.21C93,26,89,27.12,89,27.12s2.76-7.84-6-11-10.73,3.72-10.73,3.72-.55-6.4-8.67-6.33C57,13.55,57.37,20,57,19.69s-6.74-6.26-13.07-.55C38.25,24.23,42,28.63,42,28.63a9.11,9.11,0,0,0-6.6,7.71,6.32,6.32,0,0,0,5,7.57L41,54.17l-.06,0c-2.58,1.34-3,4.34-1.34,7.43s.13,7,4.83,7.58c.07,1.12.15,2.12.23,2.92.67,6.33,10.16,13.34,11.48,15.41s5.41,1.65,5.41,1.65h4.64s4.08.41,5.41-1.65,10.82-9.08,11.48-15.41c.08-.8.16-1.8.23-2.92,4.71-.56,3.25-4.59,4.84-7.58s1.24-6.09-1.34-7.43l-.1,0v-5.9a5.67,5.67,0,0,0,4.51-5.47,4.77,4.77,0,0,0-.06-.76A8.18,8.18,0,0,0,94.8,32.21Z"/><path class="cls-2" d="M79.81,94.47c-1.22-2.67-2-7.15-2.56-10.92-.9.92-1.78,1.77-2.57,2.53a23.17,23.17,0,0,0-2.42,2.51c-1.15,1.8-3.79,2.07-5.26,2.07-.44,0-.76,0-.88,0H61.56c-.11,0-.44,0-.88,0-1.47,0-4.11-.27-5.26-2.07A23.17,23.17,0,0,0,53,86.08c-.79-.76-1.67-1.61-2.57-2.53-.51,3.77-1.34,8.25-2.56,10.92l16,8Z"/><path class="cls-2" d="M108.43,109.53a6,6,0,0,1-.51.5l-.19.19a63.66,63.66,0,0,1-42.66,17.44h-.61V104.86l9.22,10.88L85,98.24a59.42,59.42,0,0,0,10.19,5.08c7.23,2.58,11.05,3.2,13.21,6.19C108.42,109.52,108.43,109.52,108.43,109.53Z"/><path class="cls-2" d="M62.86,103.37,47,95.42c-.67.46-1.81,1.24-3.28,2.16l10.43,16.09Z"/><path class="cls-2" d="M63.22,104.86v22.81h-.59A63.65,63.65,0,0,1,20,110.22l-.2-.19c-.17-.16-.35-.32-.51-.5,0,0,0,0,0,0,2.16-3,6-3.61,13.21-6.19a59.42,59.42,0,0,0,10.19-5.08L54,115.74Z"/><path class="cls-2" d="M84,97.58c-1.46-.92-2.61-1.7-3.27-2.16l-15.88,8,8.73,10.3Z"/></g></g></svg>