<svg xmlns="http://www.w3.org/2000/svg" viewBox="0 0 127.68 127.67"><defs><style>.cls-1{fill:#fcee21;}.cls-2{fill:#231f20;}</style></defs><g id="Layer_2" data-name="Layer 2"><g id="OBJECT"><path class="cls-1" d="M127.68,63.84a63.67,63.67,0,0,1-19.26,45.67h0c-.16.16-.32.33-.5.49h0a63.48,63.48,0,0,1-33.13,16.71c-.53.1-1.07.18-1.62.27s-1.21.17-1.81.23l-1.14.13q-3.15.32-6.37.32t-6.35-.3c-1-.12-2-.23-3-.37a63.63,63.63,0,0,1-34.76-17h0l-.5-.49h0A63.83,63.83,0,1,1,127.68,63.84Z"/><path class="cls-2" d="M98.13,42.57A15.46,15.46,0,0,0,87.79,22.75a9.83,9.83,0,0,0-15.1-2.95,15.18,15.18,0,0,0-25.89,2A14.6,14.6,0,0,0,28.14,33.49a15.31,15.31,0,0,0,.86,24,10.68,10.68,0,0,0-1.88,6.08,10.79,10.79,0,0,0,10,10.76A7.48,7.48,0,0,0,42.88,77,7.88,7.88,0,0,0,44,77a5.71,5.71,0,0,0,5.65,4.9,4.77,4.77,0,0,0,.76-.06c2.54,2.68,5.09,4.84,5.73,5.84,1.33,2.06,5.41,1.65,5.41,1.65h4.64s4.08.41,5.41-1.65c.7-1.1,3.7-3.58,6.47-6.63a4.4,4.4,0,0,0,1.92.44,4.54,4.54,0,0,0,4.49-3.9,10.48,10.48,0,0,0,3.08.46,10.73,10.73,0,0,0,10.7-10,13.76,13.76,0,0,0-.1-25.41Z"/><path class="cls-2" d="M62.88,100.88,47.81,94.6c-.05.12-.11.24-.17.36l-.19.13,10.41,11.66Z"/><path class="cls-2" d="M79.23,93a54.83,54.83,0,0,1-2-9.44c-.91.93-1.8,1.79-2.57,2.53a23.17,23.17,0,0,0-2.42,2.51c-1.15,1.8-3.79,2.07-5.26,2.07-.44,0-.76,0-.88,0H61.56c-.12,0-.44,0-.88,0-1.47,0-4.11-.27-5.26-2.07A23.17,23.17,0,0,0,53,86.08c-.79-.76-1.67-1.62-2.57-2.53a55.23,55.23,0,0,1-2,9.44l.26.64,15.13,6.31L79,93.63Z"/><path class="cls-2" d="M108.42,109.51h0c-.16.16-.32.33-.5.49h0a63.48,63.48,0,0,1-33.13,16.71c-.53.1-1.07.18-1.62.27s-1.21.17-1.81.23l-1.14.13q-3.15.32-6.37.32t-6.35-.3c-1-.12-2-.23-3-.37a63.63,63.63,0,0,1-34.76-17h0l-.5-.49h0c2.16-3,6-3.62,13.21-6.19a62.83,62.83,0,0,0,11.25-5.74,198.59,198.59,0,0,0,19.67,25l.45.48.45-.48A199.24,199.24,0,0,0,84,97.58a62.05,62.05,0,0,0,11.24,5.74C102.44,105.89,106.26,106.52,108.42,109.51Z"/><path class="cls-2" d="M80.23,95.09,80,95l-.17-.36L64.8,100.88l5,5.87Z"/><path class="cls-2" d="M82.89,96.89c-.64-.42-1.19-.78-1.63-1.09L69.8,108.63l-6-7-6,7L46.43,95.8c-.45.31-1,.67-1.64,1.09a202.52,202.52,0,0,0,19.05,24.33A201.47,201.47,0,0,0,82.89,96.89Z"/></g></g></svg>