<svg xmlns="http://www.w3.org/2000/svg" xmlns:xlink="http://www.w3.org/1999/xlink" width="500" zoomAndPan="magnify" viewBox="0 0 375 374.999991" height="500" preserveAspectRatio="xMidYMid meet" version="1.0"><path fill="rgb(100%, 100%, 100%)" d="M 281.222656 124.054688 C 281.191406 122.234375 281.164062 120.511719 281.164062 119.035156 L 281.164062 104.425781 L 266.765625 101.929688 C 247.824219 97.769531 229.253906 92.335938 211.054688 85.628906 C 210.820312 85 210.523438 84.402344 210.160156 83.835938 C 209.800781 83.269531 209.386719 82.746094 208.917969 82.265625 C 208.445312 81.785156 207.929688 81.359375 207.371094 80.988281 C 206.8125 80.617188 206.222656 80.304688 205.597656 80.058594 C 204.972656 79.808594 204.332031 79.628906 203.667969 79.515625 C 203.007812 79.402344 202.339844 79.359375 201.667969 79.386719 C 200.996094 79.410156 200.335938 79.507812 199.6875 79.671875 C 199.035156 79.835938 198.40625 80.066406 197.804688 80.359375 C 197.203125 80.65625 196.636719 81.011719 196.105469 81.425781 C 195.578125 81.839844 195.097656 82.304688 194.667969 82.816406 C 194.234375 83.332031 193.859375 83.886719 193.546875 84.480469 C 193.230469 85.070312 192.980469 85.691406 192.792969 86.335938 C 192.605469 86.980469 192.488281 87.636719 192.441406 88.308594 C 192.390625 88.976562 192.414062 89.644531 192.503906 90.3125 C 192.597656 90.976562 192.753906 91.625 192.984375 92.257812 C 193.210938 92.890625 193.5 93.492188 193.851562 94.0625 C 194.207031 94.632812 194.613281 95.164062 195.078125 95.648438 C 195.539062 96.132812 196.050781 96.566406 196.605469 96.945312 C 197.15625 97.324219 197.746094 97.644531 198.367188 97.898438 C 198.988281 98.15625 199.628906 98.34375 200.289062 98.46875 C 200.949219 98.589844 201.613281 98.644531 202.285156 98.625 C 202.957031 98.609375 203.617188 98.523438 204.273438 98.367188 C 204.925781 98.210938 205.554688 97.988281 206.164062 97.703125 C 206.769531 97.414062 207.339844 97.066406 207.875 96.660156 C 226.46875 103.5 245.449219 109.023438 264.808594 113.222656 L 269.699219 114.070312 L 269.699219 119.035156 C 269.699219 120.640625 269.730469 122.382812 269.761719 124.257812 C 270.257812 152.132812 271.425781 217.394531 189.546875 279.875 L 182.496094 285.253906 L 189.445312 294.34375 L 196.5 288.964844 C 233.519531 260.734375 258.734375 228.410156 271.414062 192.910156 C 275.226562 181.851562 277.960938 170.535156 279.609375 158.953125 C 281.257812 147.371094 281.796875 135.738281 281.222656 124.054688 Z M 281.222656 124.054688 " fill-opacity="1" fill-rule="nonzero"/><path fill="rgb(100%, 100%, 100%)" d="M 244.640625 128.253906 C 225.839844 124.046875 207.539062 118.265625 189.734375 110.910156 L 185.945312 109.039062 L 182.15625 110.910156 C 164.351562 118.269531 146.050781 124.050781 127.25 128.253906 L 120.164062 129.484375 L 120.164062 136.675781 C 120.164062 137.773438 120.164062 139.007812 120.113281 140.417969 C 119.742188 161.542969 118.859375 211.007812 180.757812 258.25 L 185.945312 262.207031 L 191.132812 258.25 C 253.035156 211.035156 252.152344 161.5625 251.773438 140.441406 C 251.746094 139.007812 251.722656 137.765625 251.722656 136.699219 L 251.722656 129.480469 Z M 244.640625 128.253906 " fill-opacity="1" fill-rule="nonzero"/><g clip-path="url(#id1)"><path fill="rgb(100%, 100%, 100%)" d="M 77.328125 89.039062 C 78.234375 89.039062 79.125 88.914062 79.992188 88.660156 C 80.863281 88.410156 81.683594 88.039062 82.449219 87.554688 C 83.214844 87.070312 83.898438 86.488281 84.5 85.8125 C 85.097656 85.132812 85.59375 84.382812 85.980469 83.5625 C 118.597656 75.621094 150.425781 65.265625 181.472656 52.5 L 185.945312 50.285156 L 190.414062 52.5 C 202.886719 58.664062 264.109375 79.980469 293.582031 85.121094 L 306.691406 87.398438 L 308.65625 76.105469 L 295.542969 73.832031 C 261.285156 66.167969 227.9375 55.632812 195.496094 42.222656 L 185.945312 37.5 L 176.394531 42.222656 C 146.269531 54.601562 115.382812 64.636719 83.734375 72.328125 C 83.449219 72.070312 83.144531 71.828125 82.828125 71.605469 C 82.511719 71.382812 82.179688 71.179688 81.839844 70.996094 C 81.496094 70.816406 81.144531 70.652344 80.785156 70.511719 C 80.425781 70.371094 80.054688 70.253906 79.679688 70.160156 C 79.304688 70.0625 78.925781 69.992188 78.539062 69.941406 C 78.15625 69.890625 77.769531 69.867188 77.382812 69.863281 C 76.996094 69.859375 76.609375 69.882812 76.222656 69.925781 C 75.839844 69.96875 75.457031 70.039062 75.082031 70.128906 C 74.703125 70.21875 74.332031 70.332031 73.972656 70.464844 C 73.609375 70.601562 73.253906 70.757812 72.910156 70.9375 C 72.566406 71.113281 72.234375 71.3125 71.914062 71.53125 C 71.59375 71.75 71.289062 71.988281 70.996094 72.242188 C 70.703125 72.496094 70.429688 72.769531 70.171875 73.058594 C 69.914062 73.347656 69.671875 73.648438 69.453125 73.96875 C 69.230469 74.285156 69.027344 74.617188 68.847656 74.957031 C 68.664062 75.300781 68.503906 75.652344 68.367188 76.015625 C 68.226562 76.375 68.109375 76.746094 68.015625 77.121094 C 67.921875 77.496094 67.851562 77.878906 67.800781 78.261719 C 67.753906 78.644531 67.730469 79.03125 67.726562 79.417969 C 67.726562 79.808594 67.75 80.191406 67.792969 80.578125 C 67.839844 80.960938 67.910156 81.34375 68 81.71875 C 68.09375 82.097656 68.207031 82.464844 68.34375 82.828125 C 68.480469 83.191406 68.636719 83.542969 68.816406 83.886719 C 68.996094 84.230469 69.195312 84.5625 69.414062 84.882812 C 69.632812 85.203125 69.871094 85.507812 70.128906 85.796875 C 70.386719 86.085938 70.65625 86.363281 70.949219 86.617188 C 71.238281 86.875 71.542969 87.113281 71.859375 87.335938 C 72.179688 87.554688 72.507812 87.757812 72.851562 87.9375 C 73.195312 88.117188 73.546875 88.277344 73.910156 88.414062 C 74.273438 88.550781 74.640625 88.667969 75.019531 88.761719 C 75.394531 88.851562 75.773438 88.921875 76.160156 88.96875 C 76.542969 89.015625 76.929688 89.039062 77.316406 89.039062 Z M 77.328125 89.039062 " fill-opacity="1" fill-rule="nonzero"/></g><path fill="rgb(100%, 100%, 100%)" d="M 146.867188 266.378906 C 147.5 266.378906 148.121094 266.316406 148.742188 266.191406 C 149.359375 266.070312 149.957031 265.886719 150.539062 265.648438 C 151.121094 265.40625 151.675781 265.109375 152.199219 264.761719 C 152.722656 264.410156 153.207031 264.011719 153.652344 263.566406 C 154.097656 263.121094 154.496094 262.636719 154.847656 262.113281 C 155.195312 261.589844 155.492188 261.035156 155.730469 260.453125 C 155.972656 259.871094 156.15625 259.273438 156.277344 258.65625 C 156.402344 258.039062 156.460938 257.414062 156.460938 256.785156 C 156.460938 256.152344 156.402344 255.53125 156.277344 254.910156 C 156.15625 254.292969 155.972656 253.695312 155.730469 253.113281 C 155.492188 252.53125 155.195312 251.976562 154.847656 251.453125 C 154.496094 250.929688 154.097656 250.445312 153.652344 250 C 153.207031 249.554688 152.722656 249.15625 152.199219 248.804688 C 151.675781 248.457031 151.121094 248.160156 150.539062 247.921875 C 149.957031 247.679688 149.359375 247.496094 148.742188 247.375 C 148.121094 247.25 147.5 247.191406 146.867188 247.191406 L 146.6875 247.191406 C 142.84375 243.105469 139.222656 238.835938 135.8125 234.382812 C 132.40625 229.925781 129.234375 225.3125 126.296875 220.535156 C 123.363281 215.757812 120.675781 210.84375 118.238281 205.792969 C 115.800781 200.742188 113.628906 195.578125 111.71875 190.308594 C 109.808594 185.035156 108.167969 179.679688 106.804688 174.238281 C 105.4375 168.800781 104.355469 163.304688 103.546875 157.757812 C 102.742188 152.207031 102.222656 146.632812 101.984375 141.027344 C 101.746094 135.425781 101.792969 129.824219 102.125 124.226562 L 102.125 123.960938 C 102.15625 122.089844 102.183594 120.472656 102.183594 119.003906 L 102.183594 114.039062 L 107.070312 113.191406 C 127.890625 108.628906 148.28125 102.609375 168.238281 95.136719 L 164.3125 84.367188 C 144.996094 91.609375 125.261719 97.453125 105.113281 101.894531 L 90.722656 104.394531 L 90.722656 119.003906 C 90.722656 120.371094 90.722656 121.9375 90.664062 123.757812 L 90.664062 124.023438 C 89.871094 142.769531 91.753906 161.238281 96.324219 179.4375 C 98.238281 186.375 100.554688 193.175781 103.269531 199.84375 C 105.984375 206.511719 109.082031 212.992188 112.5625 219.296875 C 116.042969 225.597656 119.882812 231.671875 124.078125 237.519531 C 128.273438 243.371094 132.796875 248.953125 137.648438 254.269531 C 137.550781 254.625 137.476562 254.980469 137.421875 255.34375 C 137.363281 255.707031 137.328125 256.070312 137.316406 256.4375 C 137.300781 256.804688 137.308594 257.171875 137.335938 257.535156 C 137.363281 257.902344 137.414062 258.265625 137.484375 258.625 C 137.550781 258.984375 137.644531 259.339844 137.753906 259.691406 C 137.863281 260.039062 137.996094 260.382812 138.144531 260.71875 C 138.292969 261.050781 138.464844 261.378906 138.648438 261.691406 C 138.835938 262.007812 139.042969 262.3125 139.265625 262.605469 C 139.488281 262.894531 139.726562 263.175781 139.980469 263.4375 C 140.234375 263.703125 140.503906 263.953125 140.785156 264.1875 C 141.066406 264.417969 141.363281 264.636719 141.671875 264.835938 C 141.980469 265.035156 142.296875 265.214844 142.625 265.378906 C 142.953125 265.542969 143.292969 265.6875 143.636719 265.8125 C 143.980469 265.933594 144.332031 266.039062 144.691406 266.121094 C 145.046875 266.207031 145.40625 266.269531 145.773438 266.3125 C 146.136719 266.355469 146.503906 266.375 146.867188 266.378906 Z M 146.867188 266.378906 " fill-opacity="1" fill-rule="nonzero"/><path fill="rgb(100%, 100%, 100%)" d="M 307.671875 112.441406 C 306.671875 112.4375 305.699219 112.585938 304.75 112.886719 C 303.796875 113.1875 302.914062 113.625 302.101562 114.203125 C 301.285156 114.777344 300.578125 115.464844 299.980469 116.261719 C 299.378906 117.058594 298.914062 117.929688 298.585938 118.871094 C 298.257812 119.8125 298.082031 120.78125 298.054688 121.78125 C 298.03125 122.777344 298.160156 123.753906 298.4375 124.710938 C 298.71875 125.667969 299.136719 126.5625 299.695312 127.386719 C 300.253906 128.214844 300.925781 128.9375 301.707031 129.554688 C 298.820312 179.820312 280.53125 224.207031 245.816406 265.15625 L 254.558594 272.570312 C 264.75 260.773438 273.761719 248.136719 281.59375 234.65625 C 289.425781 221.179688 295.9375 207.089844 301.136719 192.394531 C 308.078125 172.121094 312.09375 151.285156 313.183594 129.886719 C 314.019531 129.300781 314.742188 128.601562 315.355469 127.785156 C 315.96875 126.96875 316.4375 126.078125 316.765625 125.113281 C 317.09375 124.144531 317.261719 123.152344 317.273438 122.132812 C 317.285156 121.113281 317.136719 120.117188 316.832031 119.144531 C 316.523438 118.171875 316.074219 117.273438 315.480469 116.441406 C 314.886719 115.613281 314.175781 114.898438 313.355469 114.296875 C 312.53125 113.691406 311.636719 113.234375 310.664062 112.914062 C 309.695312 112.597656 308.703125 112.441406 307.683594 112.441406 Z M 307.671875 112.441406 " fill-opacity="1" fill-rule="nonzero"/><path fill="rgb(100%, 100%, 100%)" d="M 185.835938 317.785156 C 184.96875 317.785156 184.121094 317.902344 183.285156 318.136719 L 179.828125 315.496094 C 67.574219 229.84375 69.171875 140.328125 69.859375 102.109375 L 58.398438 101.902344 C 57.621094 117.671875 58.347656 133.371094 60.570312 149 C 62.796875 164.632812 66.480469 179.910156 71.621094 194.835938 C 88.734375 242.734375 122.800781 286.398438 172.875 324.605469 L 176.253906 327.191406 C 176.253906 327.25 176.253906 327.3125 176.253906 327.371094 C 176.253906 328 176.316406 328.625 176.4375 329.242188 C 176.558594 329.863281 176.742188 330.460938 176.980469 331.042969 C 177.222656 331.625 177.519531 332.179688 177.867188 332.703125 C 178.21875 333.226562 178.617188 333.710938 179.0625 334.15625 C 179.507812 334.601562 179.992188 335 180.515625 335.351562 C 181.039062 335.703125 181.589844 335.996094 182.171875 336.238281 C 182.753906 336.480469 183.355469 336.664062 183.972656 336.785156 C 184.589844 336.910156 185.214844 336.96875 185.84375 336.96875 C 186.472656 336.972656 187.097656 336.910156 187.714844 336.785156 C 188.335938 336.664062 188.933594 336.480469 189.515625 336.242188 C 190.097656 336 190.652344 335.703125 191.175781 335.355469 C 191.699219 335.003906 192.183594 334.605469 192.628906 334.160156 C 193.074219 333.714844 193.472656 333.230469 193.824219 332.707031 C 194.171875 332.183594 194.46875 331.628906 194.710938 331.046875 C 194.953125 330.464844 195.132812 329.867188 195.257812 329.25 C 195.378906 328.632812 195.441406 328.007812 195.441406 327.378906 C 195.441406 326.746094 195.378906 326.125 195.257812 325.503906 C 195.132812 324.886719 194.953125 324.289062 194.710938 323.707031 C 194.46875 323.125 194.175781 322.570312 193.824219 322.046875 C 193.476562 321.523438 193.078125 321.039062 192.632812 320.59375 C 192.1875 320.148438 191.703125 319.75 191.179688 319.398438 C 190.652344 319.050781 190.101562 318.753906 189.519531 318.515625 C 188.9375 318.273438 188.335938 318.089844 187.71875 317.96875 C 187.101562 317.84375 186.476562 317.785156 185.847656 317.785156 Z M 185.835938 317.785156 " fill-opacity="1" fill-rule="nonzero"/><g clip-path="url(#id2)"><path fill="rgb(0%, 0%, 0%)" d="M 184.277344 134.027344 C 160.667969 134.027344 141.527344 153.167969 141.527344 176.777344 C 141.527344 200.386719 160.667969 219.527344 184.277344 219.527344 C 207.886719 219.527344 227.027344 200.386719 227.027344 176.777344 C 227.027344 153.167969 207.886719 134.027344 184.277344 134.027344 Z M 146.394531 179.152344 L 155.855469 179.152344 C 156.074219 185.101562 157.09375 190.71875 158.773438 195.777344 L 151.402344 195.777344 C 148.535156 190.828125 146.769531 185.1875 146.394531 179.152344 Z M 186.652344 153.027344 L 186.652344 138.96875 C 193.175781 140.003906 198.910156 145.273438 202.796875 153.027344 Z M 204.820312 157.777344 C 206.613281 162.722656 207.71875 168.367188 207.949219 174.402344 L 186.652344 174.402344 L 186.652344 157.777344 Z M 181.902344 138.96875 L 181.902344 153.027344 L 165.753906 153.027344 C 169.640625 145.273438 175.378906 140.003906 181.902344 138.96875 Z M 181.902344 157.777344 L 181.902344 174.402344 L 160.601562 174.402344 C 160.835938 168.367188 161.9375 162.722656 163.730469 157.777344 Z M 155.855469 174.402344 L 146.394531 174.402344 C 146.769531 168.367188 148.535156 162.722656 151.398438 157.777344 L 158.769531 157.777344 C 157.097656 162.832031 156.074219 168.453125 155.855469 174.402344 Z M 160.601562 179.152344 L 181.902344 179.152344 L 181.902344 195.777344 L 163.730469 195.777344 C 161.9375 190.828125 160.835938 185.1875 160.601562 179.152344 Z M 181.902344 200.527344 L 181.902344 214.582031 C 175.378906 213.546875 169.640625 208.277344 165.753906 200.527344 Z M 186.652344 214.582031 L 186.652344 200.527344 L 202.800781 200.527344 C 198.914062 208.277344 193.175781 213.546875 186.652344 214.582031 Z M 186.652344 195.777344 L 186.652344 179.152344 L 207.953125 179.152344 C 207.71875 185.1875 206.617188 190.828125 204.824219 195.777344 Z M 212.699219 179.152344 L 222.15625 179.152344 C 221.78125 185.1875 220.015625 190.828125 217.152344 195.777344 L 209.777344 195.777344 C 211.457031 190.71875 212.476562 185.101562 212.699219 179.152344 Z M 212.699219 174.402344 C 212.476562 168.453125 211.457031 162.832031 209.777344 157.777344 L 217.152344 157.777344 C 220.015625 162.722656 221.78125 168.367188 222.15625 174.402344 Z M 213.914062 153.027344 L 207.96875 153.027344 C 206.265625 149.214844 204.15625 145.867188 201.75 143.054688 C 206.472656 145.503906 210.613281 148.910156 213.914062 153.027344 Z M 166.804688 143.054688 C 164.394531 145.867188 162.285156 149.214844 160.582031 153.027344 L 154.636719 153.027344 C 157.941406 148.910156 162.078125 145.507812 166.804688 143.054688 Z M 154.636719 200.527344 L 160.582031 200.527344 C 162.285156 204.335938 164.394531 207.6875 166.804688 210.496094 C 162.078125 208.046875 157.941406 204.640625 154.636719 200.527344 Z M 201.75 210.496094 C 204.15625 207.683594 206.265625 204.335938 207.96875 200.527344 L 213.914062 200.527344 C 210.613281 204.640625 206.472656 208.046875 201.75 210.496094 Z M 201.75 210.496094 " fill-opacity="1" fill-rule="nonzero"/></g></svg>